
<svg width="100" height="100" viewBox="0 0 100 100" fill="none" xmlns="http://www.w3.org/2000/svg">
  <!-- Чашка -->
  <path d="M25 40C25 35 30 30 50 30C70 30 75 35 75 40V65C75 75 65 80 50 80C35 80 25 75 25 65V40Z" fill="#D4AF37" fill-opacity="0.8" stroke="#D4AF37" stroke-width="2"/>
  
  <!-- Ручка чашки -->
  <path d="M75 45C80 45 85 50 85 55C85 60 80 65 75 65" stroke="#D4AF37" stroke-width="2" stroke-linecap="round"/>
  
  <!-- Пар над чашкой -->
  <path d="M40 25C40 25 45 15 50 20C55 25 50 15 55 10" stroke="#D4AF37" stroke-width="2" stroke-linecap="round"/>
  <path d="M50 25C50 25 55 15 60 20" stroke="#D4AF37" stroke-width="2" stroke-linecap="round"/>
  
  <!-- Блюдце -->
  <ellipse cx="50" cy="80" rx="30" ry="5" fill="#D4AF37" fill-opacity="0.3"/>
</svg>
